<?xml version="1.0" encoding="UTF-8" standalone="no"?>
<svg
   id="svg16"
   version="1.1"
   viewBox="0 0 12.7 12.7"
   height="48"
   width="48"
   sodipodi:docname="system-manager.svg"
   inkscape:version="1.3.2 (091e20ef0f, 2023-11-25)"
   xmlns:inkscape="http://www.inkscape.org/namespaces/inkscape"
   xmlns:sodipodi="http://sodipodi.sourceforge.net/DTD/sodipodi-0.dtd"
   xmlns="http://www.w3.org/2000/svg"
   xmlns:svg="http://www.w3.org/2000/svg"
   xmlns:rdf="http://www.w3.org/1999/02/22-rdf-syntax-ns#"
   xmlns:cc="http://creativecommons.org/ns#"
   xmlns:dc="http://purl.org/dc/elements/1.1/">
  <sodipodi:namedview
     id="namedview1"
     pagecolor="#505050"
     bordercolor="#ffffff"
     borderopacity="1"
     inkscape:showpageshadow="0"
     inkscape:pageopacity="0"
     inkscape:pagecheckerboard="1"
     inkscape:deskcolor="#d1d1d1"
     inkscape:zoom="6.9532165"
     inkscape:cx="-14.381833"
     inkscape:cy="64.790159"
     inkscape:window-width="2544"
     inkscape:window-height="1370"
     inkscape:window-x="0"
     inkscape:window-y="0"
     inkscape:window-maximized="0"
     inkscape:current-layer="svg16" />
  <defs
     id="defs10" />
  <metadata
     id="metadata13">
    <rdf:RDF>
      <cc:Work
         rdf:about="">
        <dc:format>image/svg+xml</dc:format>
        <dc:type
           rdf:resource="http://purl.org/dc/dcmitype/StillImage" />
      </cc:Work>
    </rdf:RDF>
  </metadata>
  <g
     id="g18"
     transform="matrix(1.2117205,0,0,1.2117205,-1.2872109,-1.2854496)">
    <path
       id="path8"
       style="fill:#5d5e64;fill-opacity:1;stroke:#000000;stroke-width:0.338823;stroke-linejoin:round;paint-order:fill markers stroke"
       inkscape:transform-center-x="0.0028337435"
       inkscape:transform-center-y="-0.41681096"
       d="M 6.3471579,1.5159202 5.5745952,1.518504 5.1684185,2.5189598 A 3.9766443,3.9766443 0 0 0 4.4599346,2.799046 L 3.4512106,2.3732322 2.9029237,2.9179018 2.3582541,3.465672 2.786135,4.4795636 A 3.9766443,3.9766443 0 0 0 2.509666,5.1771954 l -0.9911539,0.4030762 -0.00258,0.7725627 0.00258,0.7725626 1.002006,0.4072103 A 3.9766443,3.9766443 0 0 0 2.788202,8.1971661 L 2.3623882,9.2058901 2.9070578,9.754177 3.454828,10.298847 4.4687196,9.8709658 a 3.9766443,3.9766443 0 0 0 0.05581,0.024805 3.9766443,3.9766443 0 0 0 0.4092774,0.1803512 3.9766443,3.9766443 0 0 0 0.048059,0.0186 3.9766443,3.9766443 0 0 0 0.1860351,0.07235 l 0.4123779,1.014408 0.7725627,0.0026 0.7725627,-0.0026 0.414445,-1.019059 A 3.9766443,3.9766443 0 0 0 8.2054424,9.8771669 L 9.1950461,10.294713 9.743333,9.7500429 10.288003,9.2022727 9.8725241,8.2162864 A 3.9766443,3.9766443 0 0 0 10.16708,7.5320904 l 1.014408,-0.4123779 0.0026,-0.7725626 -0.0026,-0.7725627 -1.019059,-0.4149618 A 3.9766443,3.9766443 0 0 0 9.8611553,4.465611 L 10.283869,3.4620546 9.7391989,2.9137677 9.1914287,2.3690981 8.1780539,2.796979 A 3.9766443,3.9766443 0 0 0 8.1067404,2.7654563 3.9766443,3.9766443 0 0 0 7.9217388,2.6843243 3.9766443,3.9766443 0 0 0 7.5636211,2.5453147 3.9766443,3.9766443 0 0 0 7.5326153,2.5329124 L 7.1197206,1.518504 Z" />
    <rect
       style="fill:none;fill-opacity:1;stroke:none;stroke-width:0.264999;stroke-linejoin:round;paint-order:fill markers stroke"
       id="rect9"
       width="4.2238297"
       height="10.870145"
       x="6.3499999"
       y="0.3634257" />
    <rect
       style="fill:none;fill-opacity:1;stroke:none;stroke-width:0.264999;stroke-linejoin:round;paint-order:fill markers stroke"
       id="rect10"
       width="2.8086991"
       height="9.314292"
       x="6.3499999"
       y="2.690275" />
    <rect
       style="fill:none;fill-opacity:1;stroke:none;stroke-width:0.264999;stroke-linejoin:round;paint-order:fill markers stroke"
       id="rect11"
       width="4.026607"
       height="5.1924539"
       x="3.7277424"
       y="0.88047123" />
    <circle
       style="fill:#929497;fill-opacity:1;stroke:none;stroke-width:0.0682828;stroke-linejoin:round;paint-order:fill markers stroke"
       id="circle6"
       cx="6.3422418"
       cy="6.3499999"
       r="1.1706951"
       inkscape:transform-center-x="0.0070618395"
       inkscape:transform-center-y="0.059787046" />
    <circle
       style="fill:#16d24d;fill-opacity:1;stroke:none;stroke-width:0.0387519;stroke-linejoin:round;paint-order:fill markers stroke"
       id="circle13"
       cx="8.8396158"
       cy="5.1793051"
       inkscape:transform-center-x="0.0040076618"
       inkscape:transform-center-y="0.033930435"
       r="0.66439325" />
    <g
       id="g17"
       transform="matrix(0.88358651,0,0,0.88358651,0.73869723,0.73822142)">
      <g
         id="g15">
        <g
           id="g16">
          <path
             id="path9"
             style="fill:#f7ad20;fill-opacity:1;stroke:none;stroke-width:0.476388;stroke-linejoin:round;paint-order:fill markers stroke"
             d="M 6.35,2.6902751 A 3.6599622,3.6599622 0 0 0 2.6902751,6.35 3.6599622,3.6599622 0 0 0 6.35,10.009725 3.6599622,3.6599622 0 0 0 10.009725,6.35 H 8.5596842 A 2.2097185,2.2097185 0 0 1 6.35,8.5596842 2.2097185,2.2097185 0 0 1 4.1403158,6.35 2.2097185,2.2097185 0 0 1 6.35,4.1403158 Z" />
        </g>
      </g>
      <path
         id="path9-3"
         style="fill:#ff0000;fill-opacity:1;stroke:none;stroke-width:0.476388;stroke-linejoin:round;paint-order:fill markers stroke"
         d="m 6.3511956,2.6925579 a 3.6599622,3.6599622 0 0 0 -0.1302247,0.0093 3.6599622,3.6599622 0 0 1 0.1302247,0 z m -0.3896404,0.027905 a 3.6599622,3.6599622 0 0 0 -0.2573486,0.03669 3.6599622,3.6599622 0 0 1 0.1922363,-0.027388 3.6599622,3.6599622 0 0 1 0.065112,-0.0093 z M 5.4494418,2.812964 A 3.6599622,3.6599622 0 0 0 5.1962272,2.887378 3.6599622,3.6599622 0 0 1 5.4494418,2.812964 Z M 5.1962272,2.887378 A 3.6599622,3.6599622 0 0 0 4.7166699,3.0852988 3.6599622,3.6599622 0 0 1 4.8923698,3.005717 3.6599622,3.6599622 0 0 1 5.1962272,2.887378 Z M 4.4882601,3.2103557 A 3.6599622,3.6599622 0 0 0 4.2650179,3.3540162 3.6599622,3.6599622 0 0 1 4.4882601,3.2103557 Z M 4.2650179,3.3540162 a 3.6599622,3.6599622 0 0 0 -0.4020426,0.3240112 3.6599622,3.6599622 0 0 1 0.010852,-0.0093 3.6599622,3.6599622 0 0 1 0.3911906,-0.3147095 z M 3.6769401,3.8640626 a 3.6599622,3.6599622 0 0 0 -0.171049,0.1979207 3.6599622,3.6599622 0 0 1 0.1617473,-0.1870687 3.6599622,3.6599622 0 0 1 0.0093,-0.010852 z m 2.4815023,0.2868042 a 2.2097185,2.2097185 0 0 0 -0.095601,0.017053 2.2097185,2.2097185 0 0 1 0.1937866,-0.017053 2.2097185,2.2097185 0 0 0 -0.098186,0 z M 3.3529289,4.2661052 A 3.6599622,3.6599622 0 0 0 3.2092684,4.4893474 3.6599622,3.6599622 0 0 1 3.3529289,4.2661052 Z m 2.0985799,0.076998 a 2.2097185,2.2097185 0 0 0 -0.058911,0.027388 2.2097185,2.2097185 0 0 1 0.058911,-0.027388 z m -2.3672973,0.374654 a 3.6599622,3.6599622 0 0 0 -0.1080038,0.2377116 3.6599622,3.6599622 0 0 1 0.028422,-0.062012 3.6599622,3.6599622 0 0 1 0.079582,-0.1756996 z m 1.7776692,0.010335 a 2.2097185,2.2097185 0 0 0 -0.07338,0.061495 2.2097185,2.2097185 0 0 0 -0.061495,0.07338 2.2097185,2.2097185 0 0 1 0.134875,-0.134875 z m -1.97559,0.469222 a 3.6599622,3.6599622 0 0 0 -0.074414,0.2532146 3.6599622,3.6599622 0 0 1 0.074414,-0.2532146 z m 1.4831136,0.1963705 a 2.2097185,2.2097185 0 0 0 -0.027388,0.058911 2.2097185,2.2097185 0 0 1 0.027388,-0.058911 z M 2.7560661,5.7052939 a 3.6599622,3.6599622 0 0 0 -0.03669,0.2573486 3.6599622,3.6599622 0 0 1 0.0093,-0.065112 3.6599622,3.6599622 0 0 1 0.027388,-0.1922363 z m -0.055294,0.5167643 a 3.6599622,3.6599622 0 0 0 -0.0093,0.1302246 3.6599622,3.6599622 0 0 0 0.0093,0.1302246 3.6599622,3.6599622 0 0 1 0,-0.2604492 z m 0,0.2604492 A 3.6599622,3.6599622 0 0 0 2.7560661,6.9992717 3.6599622,3.6599622 0 0 1 2.7286776,6.8070354 3.6599622,3.6599622 0 0 1 2.7007721,6.4825074 Z M 8.5608796,6.3522828 a 2.2097185,2.2097185 0 0 1 -0.720886,1.624707 2.2097185,2.2097185 0 0 0 0.0739,-0.062012 l 1.018543,1.0185428 A 3.6599622,3.6599622 0 0 0 10.010921,6.3522828 Z m -4.3439208,0.539502 a 2.2097185,2.2097185 0 0 0 0.016536,0.062012 2.2097185,2.2097185 0 0 1 -0.016536,-0.062012 z M 2.8118767,7.2540365 a 3.6599622,3.6599622 0 0 0 0.074414,0.2532146 3.6599622,3.6599622 0 0 1 -0.074414,-0.2532146 z m 0.074414,0.2532146 A 3.6599622,3.6599622 0 0 0 3.0842115,7.9868084 3.6599622,3.6599622 0 0 1 3.0046297,7.8111085 3.6599622,3.6599622 0 0 1 2.8862907,7.5072511 Z m 1.8407145,0.3343465 a 2.2097185,2.2097185 0 0 0 0.061495,0.07338 2.2097185,2.2097185 0 0 0 0.07338,0.061495 2.2097185,2.2097185 0 0 1 -0.134875,-0.134875 z m 2.8592574,0.333313 a 2.2097185,2.2097185 0 0 1 -0.02894,0.020154 2.2097185,2.2097185 0 0 0 0.02894,-0.020154 z M 3.2092684,8.2152182 A 3.6599622,3.6599622 0 0 0 3.3529289,8.4384604 3.6599622,3.6599622 0 0 1 3.2092684,8.2152182 Z m 0.1436605,0.2232422 a 3.6599622,3.6599622 0 0 0 0.3240112,0.4020425 3.6599622,3.6599622 0 0 1 -0.0093,-0.01085 A 3.6599622,3.6599622 0 0 1 3.3529289,8.4384604 Z M 5.3925977,8.334074 a 2.2097185,2.2097185 0 0 0 0.058911,0.027389 2.2097185,2.2097185 0 0 1 -0.058911,-0.027389 z m 1.8965249,0.0093 a 2.2097185,2.2097185 0 0 1 -0.04444,0.021187 2.2097185,2.2097185 0 0 0 0.04444,-0.021187 z m -0.327628,0.1240252 a 2.2097185,2.2097185 0 0 1 -0.04754,0.012919 2.2097185,2.2097185 0 0 0 0.04754,-0.012919 z m -0.347783,0.07183 a 2.2097185,2.2097185 0 0 1 -0.03617,0.0031 2.2097185,2.2097185 0 0 0 0.03617,-0.0031 z M 3.8629753,9.0265379 a 3.6599622,3.6599622 0 0 0 0.1979207,0.171049 3.6599622,3.6599622 0 0 1 -0.1870687,-0.161747 3.6599622,3.6599622 0 0 1 -0.010852,-0.0093 z m 4.9661053,0.01033 a 3.6599622,3.6599622 0 0 1 -0.157613,0.138493 3.6599622,3.6599622 0 0 0 0.157613,-0.138493 z m -0.366386,0.294556 a 3.6599622,3.6599622 0 0 1 -0.207223,0.140043 3.6599622,3.6599622 0 0 0 0.207223,-0.140043 z m -4.1976767,0.01912 a 3.6599622,3.6599622 0 0 0 0.2232422,0.143661 3.6599622,3.6599622 0 0 1 -0.2232422,-0.143661 z m 3.8157877,0.216525 a 3.6599622,3.6599622 0 0 1 -0.264583,0.134875 3.6599622,3.6599622 0 0 0 0.264583,-0.134875 z m -3.3641357,0.05219 a 3.6599622,3.6599622 0 0 0 0.2377116,0.108004 3.6599622,3.6599622 0 0 1 -0.062012,-0.02842 3.6599622,3.6599622 0 0 1 -0.1756999,-0.07958 z m 3.0390907,0.10542 a 3.6599622,3.6599622 0 0 1 -1.27434,0.2780191 3.6599622,3.6599622 0 0 0 1.27434,-0.2780191 z m -1.27434,0.2780191 a 3.6599622,3.6599622 0 0 1 -0.2604497,0 3.6599622,3.6599622 0 0 0 0.1302247,0.0093 3.6599622,3.6599622 0 0 0 0.130225,-0.0093 z M 5.1962272,9.8171879 a 3.6599622,3.6599622 0 0 0 0.2532146,0.07441 3.6599622,3.6599622 0 0 1 -0.2532146,-0.07441 z m 0.5079794,0.130224 a 3.6599622,3.6599622 0 0 0 0.2573486,0.03669 3.6599622,3.6599622 0 0 1 -0.065112,-0.0093 3.6599622,3.6599622 0 0 1 -0.1922366,-0.02739 z" />
    </g>
    <circle
       style="fill:#ee7f01;fill-opacity:1;stroke:none;stroke-width:0.0387519;stroke-linejoin:round;paint-order:fill markers stroke"
       id="circle17"
       cx="7.0899563"
       cy="5.6115866"
       inkscape:transform-center-x="0.0040076618"
       inkscape:transform-center-y="0.033930435"
       r="0.66439325" />
    <circle
       style="fill:#727acf;fill-opacity:1;stroke:none;stroke-width:0.0387519;stroke-linejoin:round;paint-order:fill markers stroke"
       id="path3"
       cx="7.5129371"
       cy="3.8731456"
       inkscape:transform-center-x="0.0040076618"
       inkscape:transform-center-y="0.033930435"
       r="0.66439325" />
  </g>
</svg>
